<svg xmlns="http://www.w3.org/2000/svg" width="512" height="512" viewBox="0 0 512 512">
  <defs>
    <linearGradient id="bg" x1="0" y1="0" x2="1" y2="1">
      <stop offset="0%" stop-color="#4F46E5"/>
      <stop offset="100%" stop-color="#7C3AED"/>
    </linearGradient>
  </defs>
  <rect width="512" height="512" rx="108" ry="108" fill="url(#bg)"/>
  <!-- 체인 링크 -->
  <path d="M184 288a56 56 0 010-79.2l19.8-19.8a56 56 0 0179.2 0" stroke="white" stroke-width="29" stroke-linecap="round" fill="none"/>
  <path d="M328 224a56 56 0 010 79.2l-19.8 19.8a56 56 0 01-79.2 0" stroke="white" stroke-width="29" stroke-linecap="round" fill="none"/>
  <line x1="216" y1="296" x2="296" y2="216" stroke="white" stroke-width="29" stroke-linecap="round"/>
  <!-- AI 스파클 -->
  <path d="M112 128l19.2-48L150.4 128 131.2 176z" fill="white"/>
  <path d="M392 96l14.4-35.2 14.4 35.2 14.4 35.2-14.4-35.2z" fill="white" opacity="0.9"/>
  <path d="M408 368l16-40 16 40 16 40-16-40z" fill="white" opacity="0.85"/>
  <!-- 뉴런 노드 -->
  <circle cx="88" cy="352" r="20.8" fill="white" opacity="0.7"/>
  <line x1="104" y1="341" x2="184" y2="288" stroke="white" stroke-width="13" stroke-linecap="round" opacity="0.6"/>
  <circle cx="416" cy="224" r="20.8" fill="white" opacity="0.7"/>
  <line x1="400" y1="229" x2="328" y2="240" stroke="white" stroke-width="13" stroke-linecap="round" opacity="0.6"/>
</svg>
